<?xml version="1.0" standalone="no"?>
<!DOCTYPE svg PUBLIC "-//W3C//DTD SVG 20010904//EN"
 "http://www.w3.org/TR/2001/REC-SVG-20010904/DTD/svg10.dtd">
<svg version="1.0" xmlns="http://www.w3.org/2000/svg"
 width="1024.000000pt" height="1024.000000pt" viewBox="0 0 1024.000000 1024.000000"
 preserveAspectRatio="xMidYMid meet">
<metadata>
Created by potrace 1.14, written by Peter Selinger 2001-2017
</metadata>
<g transform="translate(0.000000,1024.000000) scale(0.100000,-0.100000)"
fill="#000000" stroke="none">
<path d="M6817 9559 c-205 -17 -339 -133 -406 -353 -39 -127 -21 -269 47 -368
36 -52 82 -100 251 -258 67 -63 144 -135 170 -160 177 -166 285 -266 295 -272
14 -9 107 87 -959 -981 -588 -589 -931 -939 -948 -969 -19 -32 -30 -68 -33
-110 -10 -110 13 -141 363 -492 342 -342 366 -360 475 -360 50 0 79 6 115 24
36 18 277 253 998 973 l950 948 60 -63 c99 -104 233 -246 360 -383 248 -265
277 -289 383 -327 185 -65 464 42 567 218 60 102 58 57 58 1349 1 1179 1 1180
-21 1251 -51 168 -202 302 -372 331 -48 8 -2256 10 -2353 2z"/>
<path d="M4101 4999 c-18 -6 -52 -22 -75 -36 -22 -14 -464 -448 -981 -965
l-940 -939 -60 63 c-33 35 -121 129 -195 208 -352 375 -388 412 -444 450 -134
90 -298 93 -471 9 -144 -70 -222 -172 -247 -322 -10 -56 -13 -346 -12 -1228 1
-1060 2 -1159 18 -1213 38 -129 111 -222 226 -289 30 -17 59 -33 65 -34 93
-23 182 -25 1265 -25 635 0 1173 2 1195 5 101 13 192 56 251 116 130 132 189
357 133 507 -36 98 -74 145 -250 309 -216 203 -331 311 -422 397 l-98 93 949
950 c1044 1045 1003 1000 999 1117 -4 102 -33 139 -345 453 -155 156 -300 298
-322 315 -76 60 -161 81 -239 59z"/>
</g>
</svg>
